<svg xmlns="http://www.w3.org/2000/svg" version="1.1" xmlns:xlink="http://www.w3.org/1999/xlink" xmlns:svgjs="http://svgjs.dev/svgjs" viewBox="0 0 10.45421847414082 2.6935165441204254"><g transform="matrix(1,0,0,1,0.4216817757201401,0.4554285184002844)"><rect width="10.45421847414082" height="2.6935165441204254" x="-0.42168177572014054" y="-0.4554285184002844" fill="#102036"></rect><g><path d=" M 0.983642578125 0.52294921875 Q 1.0048828125 0.509765625 1.0107421875 0.4962158203125 Q 1.0166015625 0.482666015625 1.0166015625 0.473876953125 Q 1.0166015625 0.46142578125 1.0045166015625 0.4515380859375 Q 0.992431640625 0.441650390625 0.9774169921875 0.4310302734375 Q 0.96240234375 0.42041015625 0.9503173828125 0.407958984375 Q 0.938232421875 0.3955078125 0.938232421875 0.3779296875 Q 0.938232421875 0.3310546875 0.9613037109375 0.299560546875 Q 0.984375 0.26806640625 1.0220947265625 0.249755859375 Q 1.059814453125 0.2314453125 1.1077880859375 0.2237548828125 Q 1.15576171875 0.216064453125 1.20556640625 0.216064453125 Q 1.26416015625 0.216064453125 1.3165283203125 0.224853515625 Q 1.368896484375 0.233642578125 1.408447265625 0.251953125 Q 1.447998046875 0.270263671875 1.471435546875 0.299560546875 Q 1.494873046875 0.328857421875 1.494873046875 0.369140625 Q 1.494873046875 0.394775390625 1.4813232421875 0.41015625 Q 1.4677734375 0.425537109375 1.4447021484375 0.4361572265625 Q 1.421630859375 0.44677734375 1.3916015625 0.4544677734375 Q 1.361572265625 0.462158203125 1.329345703125 0.472412109375 Q 1.297119140625 0.482666015625 1.2645263671875 0.4984130859375 Q 1.23193359375 0.51416015625 1.2041015625 0.539794921875 L 1.049560546875 0.6826171875 L 1.355712890625 1.072265625 Q 1.37841796875 1.1015625 1.4007568359375 1.11767578125 Q 1.423095703125 1.1337890625 1.44287109375 1.143310546875 Q 1.462646484375 1.15283203125 1.4794921875 1.1583251953125 Q 1.496337890625 1.163818359375 1.5087890625 1.171142578125 Q 1.521240234375 1.178466796875 1.5281982421875 1.1912841796875 Q 1.53515625 1.2041015625 1.53515625 1.228271484375 Q 1.53515625 1.3095703125 1.4454345703125 1.34619140625 Q 1.355712890625 1.3828125 1.185791015625 1.3828125 Q 1.100830078125 1.3828125 1.033447265625 1.37255859375 Q 0.966064453125 1.3623046875 0.9188232421875 1.3406982421875 Q 0.87158203125 1.319091796875 0.8466796875 1.2857666015625 Q 0.82177734375 1.25244140625 0.82177734375 1.20556640625 Q 0.82177734375 1.187255859375 0.8345947265625 1.177734375 Q 0.847412109375 1.168212890625 0.86279296875 1.1612548828125 Q 0.878173828125 1.154296875 0.8909912109375 1.14697265625 Q 0.90380859375 1.1396484375 0.90380859375 1.125 Q 0.90380859375 1.115478515625 0.8975830078125 1.1041259765625 Q 0.891357421875 1.0927734375 0.878173828125 1.0751953125 L 0.752197265625 0.910400390625 Q 0.744873046875 0.90087890625 0.734619140625 0.8953857421875 Q 0.724365234375 0.889892578125 0.7130126953125 0.886962890625 Q 0.70166015625 0.884033203125 0.6888427734375 0.8836669921875 Q 0.676025390625 0.88330078125 0.66357421875 0.88330078125 L 0.64892578125 0.88330078125 L 0.64892578125 1.072265625 Q 0.64892578125 1.105224609375 0.65771484375 1.12353515625 Q 0.66650390625 1.141845703125 0.6796875 1.1513671875 Q 0.69287109375 1.160888671875 0.708251953125 1.16455078125 Q 0.7236328125 1.168212890625 0.73681640625 1.172607421875 Q 0.75 1.177001953125 0.7587890625 1.1846923828125 Q 0.767578125 1.1923828125 0.767578125 1.2099609375 Q 0.767578125 1.301513671875 0.673095703125 1.3421630859375 Q 0.57861328125 1.3828125 0.39990234375 1.3828125 Q 0.3134765625 1.3828125 0.2464599609375 1.3729248046875 Q 0.179443359375 1.363037109375 0.1336669921875 1.3421630859375 Q 0.087890625 1.3212890625 0.0640869140625 1.288330078125 Q 0.040283203125 1.25537109375 0.040283203125 1.2099609375 Q 0.040283203125 1.1923828125 0.049072265625 1.1846923828125 Q 0.057861328125 1.177001953125 0.0706787109375 1.1729736328125 Q 0.08349609375 1.1689453125 0.0985107421875 1.165283203125 Q 0.113525390625 1.16162109375 0.1263427734375 1.1524658203125 Q 0.13916015625 1.143310546875 0.14794921875 1.125732421875 Q 0.15673828125 1.108154296875 0.15673828125 1.0751953125 L 0.15673828125 0.52294921875 Q 0.15673828125 0.49072265625 0.14794921875 0.4727783203125 Q 0.13916015625 0.454833984375 0.1263427734375 0.4456787109375 Q 0.113525390625 0.4365234375 0.0985107421875 0.432861328125 Q 0.08349609375 0.42919921875 0.0706787109375 0.4251708984375 Q 0.057861328125 0.421142578125 0.049072265625 0.4134521484375 Q 0.040283203125 0.40576171875 0.040283203125 0.38818359375 Q 0.040283203125 0.3427734375 0.0640869140625 0.3101806640625 Q 0.087890625 0.277587890625 0.1336669921875 0.2567138671875 Q 0.179443359375 0.23583984375 0.2464599609375 0.2259521484375 Q 0.3134765625 0.216064453125 0.39990234375 0.216064453125 Q 0.4892578125 0.216064453125 0.55810546875 0.2259521484375 Q 0.626953125 0.23583984375 0.6734619140625 0.2567138671875 Q 0.719970703125 0.277587890625 0.7437744140625 0.3101806640625 Q 0.767578125 0.3427734375 0.767578125 0.38818359375 Q 0.767578125 0.40576171875 0.7587890625 0.4134521484375 Q 0.75 0.421142578125 0.73681640625 0.4251708984375 Q 0.7236328125 0.42919921875 0.708251953125 0.432861328125 Q 0.69287109375 0.4365234375 0.6796875 0.4456787109375 Q 0.66650390625 0.454833984375 0.65771484375 0.4727783203125 Q 0.64892578125 0.49072265625 0.64892578125 0.52294921875 L 0.64892578125 0.75146484375 Q 0.66943359375 0.75146484375 0.692138671875 0.749267578125 Q 0.71484375 0.7470703125 0.733154296875 0.733154296875 L 0.983642578125 0.52294921875 Z M 2.08154296875 0.599853515625 Q 2.05810546875 0.599853515625 2.03759765625 0.6104736328125 Q 2.01708984375 0.62109375 2.0020751953125 0.64306640625 Q 1.9870605468750002 0.6650390625 1.9786376953125002 0.6990966796875 Q 1.9702148437500002 0.733154296875 1.9702148437500002 0.780029296875 L 2.203857421875 0.780029296875 Q 2.203857421875 0.728759765625 2.19580078125 0.6939697265625 Q 2.187744140625 0.6591796875 2.17236328125 0.6383056640625 Q 2.156982421875 0.617431640625 2.1339111328125 0.608642578125 Q 2.11083984375 0.599853515625 2.08154296875 0.599853515625 Z M 2.02734375 0.412353515625 Q 2.12548828125 0.412353515625 2.2042236328125 0.441650390625 Q 2.282958984375 0.470947265625 2.3382568359375 0.522216796875 Q 2.3935546875 0.573486328125 2.4232177734375 0.6427001953125 Q 2.452880859375 0.7119140625 2.452880859375 0.791748046875 Q 2.452880859375 0.82470703125 2.4437255859375 0.843017578125 Q 2.4345703125 0.861328125 2.417724609375 0.8701171875 Q 2.40087890625 0.87890625 2.3759765625 0.881103515625 Q 2.35107421875 0.88330078125 2.319580078125 0.88330078125 L 1.9672851562500002 0.88330078125 Q 1.9672851562500002 0.9638671875 1.9837646484375002 1.0140380859375 Q 2.000244140625 1.064208984375 2.029541015625 1.092041015625 Q 2.058837890625 1.119873046875 2.099853515625 1.1297607421875 Q 2.140869140625 1.1396484375 2.190673828125 1.1396484375 Q 2.217041015625 1.1396484375 2.2452392578125 1.134521484375 Q 2.2734375 1.12939453125 2.2994384765625 1.121337890625 Q 2.325439453125 1.11328125 2.347412109375 1.1044921875 Q 2.369384765625 1.095703125 2.384033203125 1.087646484375 Q 2.395751953125 1.0810546875 2.40673828125 1.0810546875 Q 2.423583984375 1.0810546875 2.43310546875 1.0953369140625 Q 2.442626953125 1.109619140625 2.442626953125 1.127197265625 Q 2.442626953125 1.133056640625 2.44189453125 1.13818359375 Q 2.441162109375 1.143310546875 2.43896484375 1.1484375 Q 2.417724609375 1.20263671875 2.381103515625 1.248779296875 Q 2.344482421875 1.294921875 2.2921142578125 1.3289794921875 Q 2.23974609375 1.363037109375 2.1708984375 1.382080078125 Q 2.10205078125 1.401123046875 2.016357421875 1.401123046875 Q 1.9343261718750002 1.401123046875 1.8665771484375002 1.3817138671875 Q 1.7988281250000002 1.3623046875 1.7442626953125002 1.3275146484375 Q 1.6896972656250002 1.292724609375 1.6486816406250002 1.245849609375 Q 1.6076660156250002 1.198974609375 1.5805664062500002 1.1436767578125 Q 1.5534667968750002 1.08837890625 1.5399169921875002 1.0279541015625 Q 1.5263671875000002 0.967529296875 1.5263671875000002 0.906005859375 Q 1.5263671875000002 0.84375 1.5402832031250002 0.7825927734375 Q 1.5541992187500002 0.721435546875 1.5820312500000002 0.66650390625 Q 1.6098632812500002 0.611572265625 1.6516113281250002 0.5650634765625 Q 1.6933593750000002 0.5185546875 1.7490234375000002 0.4844970703125 Q 1.8046875000000002 0.450439453125 1.8742675781250002 0.431396484375 Q 1.9438476562500002 0.412353515625 2.02734375 0.412353515625 Z M 2.60302734375 0.181640625 Q 2.60302734375 0.14501953125 2.6158447265625 0.1175537109375 Q 2.628662109375 0.090087890625 2.6488037109375 0.0699462890625 Q 2.6689453125 0.0498046875 2.6949462890625 0.0362548828125 Q 2.720947265625 0.022705078125 2.7476806640625 0.0146484375 Q 2.7744140625 0.006591796875 2.7989501953125 0.0032958984375 Q 2.823486328125 0 2.841796875 0 Q 2.86083984375 0 2.8861083984375 0.0032958984375 Q 2.911376953125 0.006591796875 2.937744140625 0.0146484375 Q 2.964111328125 0.022705078125 2.98974609375 0.0362548828125 Q 3.015380859375 0.0498046875 3.0355224609375 0.0699462890625 Q 3.0556640625 0.090087890625 3.0677490234375 0.1175537109375 Q 3.079833984375 0.14501953125 3.079833984375 0.181640625 Q 3.079833984375 0.217529296875 3.0677490234375 0.245361328125 Q 3.0556640625 0.273193359375 3.0355224609375 0.29296875 Q 3.015380859375 0.312744140625 2.98974609375 0.3262939453125 Q 2.964111328125 0.33984375 2.937744140625 0.347900390625 Q 2.911376953125 0.35595703125 2.8861083984375 0.3592529296875 Q 2.86083984375 0.362548828125 2.841796875 0.362548828125 Q 2.823486328125 0.362548828125 2.7989501953125 0.3592529296875 Q 2.7744140625 0.35595703125 2.7476806640625 0.347900390625 Q 2.720947265625 0.33984375 2.6949462890625 0.3262939453125 Q 2.6689453125 0.312744140625 2.6488037109375 0.29296875 Q 2.628662109375 0.273193359375 2.6158447265625 0.2457275390625 Q 2.60302734375 0.21826171875 2.60302734375 0.181640625 Z M 3.071044921875 1.220947265625 Q 3.071044921875 1.273681640625 3.06005859375 1.3245849609375 Q 3.049072265625 1.37548828125 3.0260009765625 1.4208984375 Q 3.0029296875 1.46630859375 2.967041015625 1.505126953125 Q 2.93115234375 1.5439453125 2.8809814453125 1.5721435546875 Q 2.830810546875 1.600341796875 2.7652587890625 1.6160888671875 Q 2.69970703125 1.6318359375 2.618408203125 1.6318359375 Q 2.5810546875 1.6318359375 2.5550537109375 1.62451171875 Q 2.529052734375 1.6171875 2.5133056640625 1.6058349609375 Q 2.49755859375 1.594482421875 2.490234375 1.5794677734375 Q 2.48291015625 1.564453125 2.48291015625 1.549072265625 Q 2.48291015625 1.53369140625 2.4891357421875 1.5194091796875 Q 2.495361328125 1.505126953125 2.505615234375 1.494140625 Q 2.515869140625 1.483154296875 2.5301513671875 1.4765625 Q 2.54443359375 1.469970703125 2.561279296875 1.469970703125 Q 2.59130859375 1.469970703125 2.6114501953125 1.4666748046875 Q 2.631591796875 1.46337890625 2.6436767578125 1.45751953125 Q 2.65576171875 1.45166015625 2.660888671875 1.4425048828125 Q 2.666015625 1.433349609375 2.666015625 1.421630859375 Q 2.666015625 1.40625 2.6590576171875 1.3857421875 Q 2.652099609375 1.365234375 2.6436767578125 1.3399658203125 Q 2.63525390625 1.314697265625 2.6282958984375 1.2850341796875 Q 2.621337890625 1.25537109375 2.621337890625 1.220947265625 L 2.621337890625 0.712646484375 Q 2.621337890625 0.683349609375 2.61328125 0.667236328125 Q 2.605224609375 0.651123046875 2.593505859375 0.6427001953125 Q 2.581787109375 0.63427734375 2.56787109375 0.63134765625 Q 2.553955078125 0.62841796875 2.542236328125 0.624755859375 Q 2.530517578125 0.62109375 2.5224609375 0.6141357421875 Q 2.514404296875 0.607177734375 2.514404296875 0.591064453125 Q 2.514404296875 0.54931640625 2.5360107421875 0.5196533203125 Q 2.5576171875 0.489990234375 2.599365234375 0.4705810546875 Q 2.64111328125 0.451171875 2.701904296875 0.4423828125 Q 2.7626953125 0.43359375 2.841796875 0.43359375 Q 2.920166015625 0.43359375 2.9659423828125 0.441650390625 Q 3.01171875 0.44970703125 3.03515625 0.4691162109375 Q 3.05859375 0.488525390625 3.0648193359375 0.521484375 Q 3.071044921875 0.554443359375 3.071044921875 0.604248046875 L 3.071044921875 1.220947265625 Z M 3.759521484375 0.599853515625 Q 3.736083984375 0.599853515625 3.715576171875 0.6104736328125 Q 3.695068359375 0.62109375 3.6800537109375 0.64306640625 Q 3.6650390625 0.6650390625 3.6566162109375 0.6990966796875 Q 3.648193359375 0.733154296875 3.648193359375 0.780029296875 L 3.8818359375 0.780029296875 Q 3.8818359375 0.728759765625 3.873779296875 0.6939697265625 Q 3.86572265625 0.6591796875 3.850341796875 0.6383056640625 Q 3.8349609375 0.617431640625 3.8118896484375 0.608642578125 Q 3.788818359375 0.599853515625 3.759521484375 0.599853515625 Z M 3.705322265625 0.412353515625 Q 3.803466796875 0.412353515625 3.8822021484375 0.441650390625 Q 3.9609375 0.470947265625 4.0162353515625 0.522216796875 Q 4.071533203125 0.573486328125 4.1011962890625 0.6427001953125 Q 4.130859375 0.7119140625 4.130859375 0.791748046875 Q 4.130859375 0.82470703125 4.1217041015625 0.843017578125 Q 4.112548828125 0.861328125 4.095703125 0.8701171875 Q 4.078857421875 0.87890625 4.053955078125 0.881103515625 Q 4.029052734375 0.88330078125 3.99755859375 0.88330078125 L 3.645263671875 0.88330078125 Q 3.645263671875 0.9638671875 3.6617431640625 1.0140380859375 Q 3.67822265625 1.064208984375 3.70751953125 1.092041015625 Q 3.73681640625 1.119873046875 3.77783203125 1.1297607421875 Q 3.81884765625 1.1396484375 3.86865234375 1.1396484375 Q 3.89501953125 1.1396484375 3.9232177734375 1.134521484375 Q 3.951416015625 1.12939453125 3.9774169921875 1.121337890625 Q 4.00341796875 1.11328125 4.025390625 1.1044921875 Q 4.04736328125 1.095703125 4.06201171875 1.087646484375 Q 4.07373046875 1.0810546875 4.084716796875 1.0810546875 Q 4.1015625 1.0810546875 4.111083984375 1.0953369140625 Q 4.12060546875 1.109619140625 4.12060546875 1.127197265625 Q 4.12060546875 1.133056640625 4.119873046875 1.13818359375 Q 4.119140625 1.143310546875 4.116943359375 1.1484375 Q 4.095703125 1.20263671875 4.05908203125 1.248779296875 Q 4.0224609375 1.294921875 3.9700927734375 1.3289794921875 Q 3.917724609375 1.363037109375 3.848876953125 1.382080078125 Q 3.780029296875 1.401123046875 3.6943359375 1.401123046875 Q 3.6123046875 1.401123046875 3.5445556640625 1.3817138671875 Q 3.476806640625 1.3623046875 3.4222412109375 1.3275146484375 Q 3.36767578125 1.292724609375 3.32666015625 1.245849609375 Q 3.28564453125 1.198974609375 3.258544921875 1.1436767578125 Q 3.2314453125 1.08837890625 3.2178955078125 1.0279541015625 Q 3.204345703125 0.967529296875 3.204345703125 0.906005859375 Q 3.204345703125 0.84375 3.21826171875 0.7825927734375 Q 3.232177734375 0.721435546875 3.260009765625 0.66650390625 Q 3.287841796875 0.611572265625 3.32958984375 0.5650634765625 Q 3.371337890625 0.5185546875 3.427001953125 0.4844970703125 Q 3.482666015625 0.450439453125 3.55224609375 0.431396484375 Q 3.621826171875 0.412353515625 3.705322265625 0.412353515625 Z M 5.3701171875 0.913330078125 Q 5.3701171875 0.9697265625 5.3631591796875 1.027587890625 Q 5.356201171875 1.08544921875 5.33935546875 1.1396484375 Q 5.322509765625 1.19384765625 5.294677734375 1.241455078125 Q 5.266845703125 1.2890625 5.2254638671875 1.3245849609375 Q 5.18408203125 1.360107421875 5.1273193359375 1.380615234375 Q 5.070556640625 1.401123046875 4.99658203125 1.401123046875 Q 4.9130859375 1.401123046875 4.8526611328125 1.383544921875 Q 4.792236328125 1.365966796875 4.749755859375 1.341064453125 L 4.749755859375 1.51171875 Q 4.749755859375 1.54248046875 4.7578125 1.5589599609375 Q 4.765869140625 1.575439453125 4.777587890625 1.5838623046875 Q 4.789306640625 1.59228515625 4.8035888671875 1.5955810546875 Q 4.81787109375 1.598876953125 4.82958984375 1.6025390625 Q 4.84130859375 1.606201171875 4.849365234375 1.6131591796875 Q 4.857421875 1.6201171875 4.857421875 1.63623046875 Q 4.857421875 1.7197265625 4.77099609375 1.7567138671875 Q 4.6845703125 1.793701171875 4.521240234375 1.793701171875 Q 4.44287109375 1.793701171875 4.382080078125 1.784912109375 Q 4.3212890625 1.776123046875 4.279541015625 1.7567138671875 Q 4.23779296875 1.7373046875 4.2161865234375 1.7076416015625 Q 4.194580078125 1.677978515625 4.194580078125 1.63623046875 Q 4.194580078125 1.6201171875 4.2022705078125 1.6131591796875 Q 4.2099609375 1.606201171875 4.2220458984375 1.6025390625 Q 4.234130859375 1.598876953125 4.2476806640625 1.595947265625 Q 4.26123046875 1.593017578125 4.2733154296875 1.5845947265625 Q 4.285400390625 1.576171875 4.2930908203125 1.5604248046875 Q 4.30078125 1.544677734375 4.30078125 1.5146484375 L 4.30078125 0.712646484375 Q 4.30078125 0.683349609375 4.2930908203125 0.667236328125 Q 4.285400390625 0.651123046875 4.2733154296875 0.6427001953125 Q 4.26123046875 0.63427734375 4.2476806640625 0.63134765625 Q 4.234130859375 0.62841796875 4.2220458984375 0.624755859375 Q 4.2099609375 0.62109375 4.2022705078125 0.6141357421875 Q 4.194580078125 0.607177734375 4.194580078125 0.591064453125 Q 4.194580078125 0.54931640625 4.2161865234375 0.5196533203125 Q 4.23779296875 0.489990234375 4.279541015625 0.4705810546875 Q 4.3212890625 0.451171875 4.382080078125 0.4423828125 Q 4.44287109375 0.43359375 4.521240234375 0.43359375 Q 4.60693359375 0.43359375 4.6534423828125 0.446044921875 Q 4.699951171875 0.45849609375 4.72119140625 0.489990234375 Q 4.74169921875 0.474609375 4.76806640625 0.460693359375 Q 4.79443359375 0.44677734375 4.8277587890625 0.4361572265625 Q 4.861083984375 0.425537109375 4.9017333984375 0.4189453125 Q 4.9423828125 0.412353515625 4.9921875 0.412353515625 Q 5.066162109375 0.412353515625 5.123291015625 0.43359375 Q 5.180419921875 0.454833984375 5.2225341796875 0.4910888671875 Q 5.2646484375 0.52734375 5.2928466796875 0.576416015625 Q 5.321044921875 0.62548828125 5.3382568359375 0.68115234375 Q 5.35546875 0.73681640625 5.36279296875 0.796142578125 Q 5.3701171875 0.85546875 5.3701171875 0.913330078125 Z M 4.749755859375 1.1953125 Q 4.76513671875 1.201171875 4.78125 1.2041015625 Q 4.79736328125 1.20703125 4.814208984375 1.20703125 Q 4.855224609375 1.20703125 4.877197265625 1.1942138671875 Q 4.899169921875 1.181396484375 4.909423828125 1.1484375 Q 4.919677734375 1.115478515625 4.9215087890625 1.05908203125 Q 4.92333984375 1.002685546875 4.92333984375 0.916259765625 Q 4.92333984375 0.825439453125 4.916748046875 0.7642822265625 Q 4.91015625 0.703125 4.8955078125 0.6668701171875 Q 4.880859375 0.630615234375 4.857421875 0.615234375 Q 4.833984375 0.599853515625 4.80029296875 0.599853515625 Q 4.787109375 0.599853515625 4.77392578125 0.60205078125 Q 4.7607421875 0.604248046875 4.749755859375 0.608642578125 Q 4.751220703125 0.63134765625 4.751220703125 0.656982421875 Q 4.751220703125 0.6826171875 4.751220703125 0.712646484375 L 4.749755859375 1.1953125 Z M 5.940673828125 1.232666015625 Q 5.96484375 1.232666015625 5.9798583984375 1.2249755859375 Q 5.994873046875 1.21728515625 6.0029296875 1.2030029296875 Q 6.010986328125 1.188720703125 6.0135498046875 1.1678466796875 Q 6.01611328125 1.14697265625 6.01611328125 1.12060546875 Q 6.01611328125 1.097900390625 6.015380859375 1.062744140625 Q 6.0146484375 1.027587890625 6.013916015625 0.993896484375 Q 6.012451171875 0.954345703125 6.01171875 0.911865234375 Q 6.00146484375 0.910400390625 5.9923095703125 0.9093017578125 Q 5.983154296875 0.908203125 5.974365234375 0.908203125 Q 5.93701171875 0.908203125 5.9117431640625 0.9232177734375 Q 5.886474609375 0.938232421875 5.87109375 0.9649658203125 Q 5.855712890625 0.99169921875 5.8494873046875 1.0279541015625 Q 5.84326171875 1.064208984375 5.84326171875 1.106689453125 Q 5.84326171875 1.13232421875 5.84619140625 1.1553955078125 Q 5.84912109375 1.178466796875 5.859375 1.1956787109375 Q 5.86962890625 1.212890625 5.8890380859375 1.2227783203125 Q 5.908447265625 1.232666015625 5.940673828125 1.232666015625 Z M 6.293701171875 1.3828125 Q 6.25634765625 1.3828125 6.2193603515625 1.3787841796875 Q 6.182373046875 1.374755859375 6.1490478515625 1.3623046875 Q 6.11572265625 1.349853515625 6.087890625 1.326416015625 Q 6.06005859375 1.302978515625 6.040283203125 1.26416015625 Q 6.025634765625 1.298583984375 5.9930419921875 1.32421875 Q 5.96044921875 1.349853515625 5.9190673828125 1.3670654296875 Q 5.877685546875 1.38427734375 5.8319091796875 1.3927001953125 Q 5.7861328125 1.401123046875 5.744384765625 1.401123046875 Q 5.67041015625 1.401123046875 5.61474609375 1.383544921875 Q 5.55908203125 1.365966796875 5.52099609375 1.3333740234375 Q 5.48291015625 1.30078125 5.4638671875 1.25537109375 Q 5.44482421875 1.2099609375 5.44482421875 1.153564453125 Q 5.44482421875 1.0869140625 5.4671630859375 1.0272216796875 Q 5.489501953125 0.967529296875 5.5433349609375 0.9228515625 Q 5.59716796875 0.878173828125 5.687255859375 0.8521728515625 Q 5.77734375 0.826171875 5.912841796875 0.826171875 L 6.01318359375 0.826171875 Q 6.01318359375 0.744873046875 6.0076904296875 0.69140625 Q 6.002197265625 0.637939453125 5.990478515625 0.6064453125 Q 5.978759765625 0.574951171875 5.961181640625 0.5625 Q 5.943603515625 0.550048828125 5.918701171875 0.550048828125 Q 5.890869140625 0.550048828125 5.8721923828125 0.56689453125 Q 5.853515625 0.583740234375 5.8421630859375 0.6156005859375 Q 5.830810546875 0.6474609375 5.8260498046875 0.6925048828125 Q 5.8212890625 0.737548828125 5.8212890625 0.794677734375 Q 5.789794921875 0.794677734375 5.7550048828125 0.7935791015625 Q 5.72021484375 0.79248046875 5.6861572265625 0.7880859375 Q 5.652099609375 0.78369140625 5.6217041015625 0.7745361328125 Q 5.59130859375 0.765380859375 5.56787109375 0.7496337890625 Q 5.54443359375 0.73388671875 5.530517578125 0.709716796875 Q 5.5166015625 0.685546875 5.5166015625 0.651123046875 Q 5.5166015625 0.602783203125 5.5418701171875 0.5595703125 Q 5.567138671875 0.516357421875 5.6195068359375 0.4837646484375 Q 5.671875 0.451171875 5.75244140625 0.4317626953125 Q 5.8330078125 0.412353515625 5.9443359375 0.412353515625 Q 6.073974609375 0.412353515625 6.167724609375 0.438720703125 Q 6.261474609375 0.465087890625 6.3218994140625 0.517822265625 Q 6.38232421875 0.570556640625 6.4112548828125 0.6507568359375 Q 6.440185546875 0.73095703125 6.440185546875 0.838623046875 L 6.440185546875 1.097900390625 Q 6.440185546875 1.12939453125 6.4486083984375 1.14697265625 Q 6.45703125 1.16455078125 6.4691162109375 1.1737060546875 Q 6.481201171875 1.182861328125 6.495849609375 1.1865234375 Q 6.510498046875 1.190185546875 6.5225830078125 1.1942138671875 Q 6.53466796875 1.1982421875 6.5430908203125 1.2052001953125 Q 6.551513671875 1.212158203125 6.551513671875 1.228271484375 Q 6.551513671875 1.301513671875 6.4859619140625 1.3421630859375 Q 6.42041015625 1.3828125 6.293701171875 1.3828125 Z M 7.271484375 0.914794921875 L 7.379150390625 0.685546875 Q 7.385009765625 0.673095703125 7.3857421875 0.667236328125 Q 7.386474609375 0.661376953125 7.386474609375 0.65478515625 L 7.386474609375 0.64453125 Q 7.386474609375 0.635009765625 7.3714599609375 0.62548828125 Q 7.3564453125 0.615966796875 7.3385009765625 0.605712890625 Q 7.320556640625 0.595458984375 7.3055419921875 0.583740234375 Q 7.29052734375 0.572021484375 7.29052734375 0.55810546875 Q 7.29052734375 0.519287109375 7.319091796875 0.4947509765625 Q 7.34765625 0.47021484375 7.3905029296875 0.4566650390625 Q 7.433349609375 0.443115234375 7.482421875 0.4383544921875 Q 7.531494140625 0.43359375 7.572509765625 0.43359375 Q 7.667724609375 0.43359375 7.7193603515625 0.4625244140625 Q 7.77099609375 0.491455078125 7.77099609375 0.55810546875 Q 7.77099609375 0.574951171875 7.7611083984375 0.5841064453125 Q 7.751220703125 0.59326171875 7.735107421875 0.59912109375 Q 7.718994140625 0.60498046875 7.6988525390625 0.6097412109375 Q 7.6787109375 0.614501953125 7.658935546875 0.623291015625 Q 7.63916015625 0.632080078125 7.62158203125 0.6463623046875 Q 7.60400390625 0.66064453125 7.59228515625 0.685546875 L 7.2275390625 1.475830078125 Q 7.184326171875 1.569580078125 7.1407470703125 1.6343994140625 Q 7.09716796875 1.69921875 7.0535888671875 1.7398681640625 Q 7.010009765625 1.780517578125 6.9671630859375 1.7984619140625 Q 6.92431640625 1.81640625 6.882568359375 1.81640625 Q 6.831298828125 1.81640625 6.78662109375 1.7933349609375 Q 6.741943359375 1.770263671875 6.708984375 1.7332763671875 Q 6.676025390625 1.6962890625 6.656982421875 1.65087890625 Q 6.637939453125 1.60546875 6.637939453125 1.56005859375 Q 6.637939453125 1.502197265625 6.6507568359375 1.4630126953125 Q 6.66357421875 1.423828125 6.68408203125 1.4000244140625 Q 6.70458984375 1.376220703125 6.7305908203125 1.365966796875 Q 6.756591796875 1.355712890625 6.78369140625 1.355712890625 Q 6.816650390625 1.355712890625 6.83935546875 1.3714599609375 Q 6.862060546875 1.38720703125 6.876708984375 1.4102783203125 Q 6.891357421875 1.433349609375 6.9005126953125 1.4608154296875 Q 6.90966796875 1.48828125 6.9169921875 1.5113525390625 Q 6.92431640625 1.534423828125 6.930908203125 1.5501708984375 Q 6.9375 1.56591796875 6.947021484375 1.56591796875 Q 6.95361328125 1.56591796875 6.9635009765625 1.5560302734375 Q 6.973388671875 1.546142578125 6.986572265625 1.5230712890625 Q 6.999755859375 1.5 7.017333984375 1.462646484375 Q 7.034912109375 1.42529296875 7.058349609375 1.37109375 L 6.687744140625 0.685546875 Q 6.673828125 0.659912109375 6.65625 0.6456298828125 Q 6.638671875 0.63134765625 6.6207275390625 0.6236572265625 Q 6.602783203125 0.615966796875 6.5859375 0.6119384765625 Q 6.569091796875 0.60791015625 6.5555419921875 0.6024169921875 Q 6.5419921875 0.596923828125 6.533935546875 0.58740234375 Q 6.52587890625 0.577880859375 6.52587890625 0.55810546875 Q 6.52587890625 0.531005859375 6.539794921875 0.51123046875 Q 6.5537109375 0.491455078125 6.577880859375 0.4775390625 Q 6.60205078125 0.463623046875 6.635009765625 0.4552001953125 Q 6.66796875 0.44677734375 6.7056884765625 0.4420166015625 Q 6.743408203125 0.437255859375 6.784423828125 0.4354248046875 Q 6.825439453125 0.43359375 6.866455078125 0.43359375 Q 6.949951171875 0.43359375 7.01220703125 0.438720703125 Q 7.074462890625 0.44384765625 7.1158447265625 0.4573974609375 Q 7.1572265625 0.470947265625 7.1773681640625 0.4954833984375 Q 7.197509765625 0.52001953125 7.197509765625 0.55810546875 Q 7.197509765625 0.572021484375 7.184326171875 0.582275390625 Q 7.171142578125 0.592529296875 7.15576171875 0.601318359375 Q 7.140380859375 0.610107421875 7.127197265625 0.6185302734375 Q 7.114013671875 0.626953125 7.114013671875 0.637939453125 Q 7.114013671875 0.64013671875 7.115478515625 0.64453125 Q 7.119140625 0.652587890625 7.12353515625 0.6610107421875 Q 7.1279296875 0.66943359375 7.135986328125 0.685546875 L 7.271484375 0.914794921875 Z" fill="#ffffff" fill-rule="nonzero"></path></g><g></g><g clip-path="url(&quot;#SvgjsClipPath1019&quot;)"><g clip-path="url(&quot;#SvgjsClipPath1008&quot;)"><path d=" M 8.51698006933558 0.4765366006350261 C 8.587225767105506 0.36180415410976446 8.707982510059507 0.2874571184288729 8.84205573064498 0.2763952983843937 C 8.858565908698266 0.2750867801199661 8.87344055867159 0.2659213988783793 8.882032672812477 0.25176252272277755 C 8.887718926710757 0.2424660826446116 8.890298180459641 0.23160086389058726 8.889396846369644 0.22074062087392937 C 8.887067976648142 0.19230884848500787 8.8621514710676 0.17113555987186693 8.833716509717865 0.17342516429057495 C 8.666689185128027 0.18714189287308566 8.516230455486843 0.27972968056979114 8.428712623214789 0.42265240387524067 C 8.421578867179486 0.4343501101698109 8.41938510981316 0.4484029059512918 8.422614110746787 0.46171832410829633 C 8.425843111680416 0.47503374226530093 8.434230271685577 0.4865206560242774 8.445929907036613 0.49365124789158665 C 8.470280748703285 0.5085146127375608 8.502068017644472 0.5008576577416166 8.51698006933558 0.4765366006350261 Z" fill="#3682ae" transform="matrix(1,0,0,1,0,0)" fill-rule="nonzero"></path></g><g clip-path="url(&quot;#SvgjsClipPath1008&quot;)"><path d=" M 8.414754050339871 0.6147623948945333 C 8.3862760611381 0.6135301647428719 8.362172951811388 0.6355787709412601 8.360869853580088 0.6640536053590805 C 8.357582575445642 0.7337169044317202 8.368359882190552 0.8033287067832322 8.392558893103107 0.8687365756223222 C 8.397293354353518 0.8815915334882013 8.406945226459104 0.892036252977721 8.419387244565385 0.8977687263102487 C 8.431829262671666 0.9035011996427762 8.446040126613608 0.9040508780768919 8.458887773400267 0.8992966129275162 C 8.464777136182079 0.897140105481275 8.470221310817383 0.8939223025818128 8.474950395862944 0.889802730641268 C 8.491118613519514 0.8756968149024669 8.49688830777985 0.8530673591840631 8.489447810705459 0.8329420734890373 C 8.470084292047902 0.7804533770883605 8.461471769829698 0.7246072350452644 8.464122238228361 0.668723569078262 C 8.464748490362549 0.6550168070090382 8.459895267182308 0.641624131316475 8.450633421969316 0.6315006071569512 C 8.44137157675632 0.6213770829974271 8.428462319580547 0.6153547398808923 8.414754050339871 0.6147623948945333 Z" fill="#3682ae" transform="matrix(1,0,0,1,0,0)" fill-rule="nonzero"></path></g><g clip-path="url(&quot;#SvgjsClipPath1008&quot;)"><path d=" M 8.61679412904775 1.0123251304164946 C 8.606241479724314 1.003562606452154 8.592630453165325 0.9993695073137379 8.578976272515517 1.0006747217603331 C 8.565322091865704 1.0019799362069282 8.552751942239164 1.008675715679129 8.544050463422042 1.0192787577126383 C 8.525955025339979 1.041351585421728 8.529121785250481 1.0739026646467307 8.551132386424753 1.0920737416209776 C 8.653157099407197 1.1761005237815345 8.783265135354299 1.218283845275519 8.915184283390397 1.2101057916662223 C 9.030758424016195 1.203535932709924 9.140803202081917 1.1584502745810423 9.227763942879788 1.082041017367132 C 9.323123442378737 0.9989309392825476 9.385114922855493 0.8840643725167961 9.402246103816235 0.7587358368084178 C 9.404100668675968 0.7451559826398383 9.400484627743763 0.731395606277719 9.392193487864068 0.7204819061923143 C 9.38390234798437 0.7095682061069093 9.37161529430383 0.7023951996589797 9.358035403331892 0.7005409043078491 C 9.329772776607106 0.6966916474081223 9.303727722222165 0.716446402188415 9.299814811690014 0.7447002865095592 C 9.286061073776331 0.8453173044831512 9.236284136744748 0.9375322711634525 9.159715900114568 1.0042425009025269 C 9.089960557421753 1.065583275039541 9.00166317697196 1.101782129496503 8.90892345290974 1.1070586801484605 C 8.803069339611724 1.1135715432317432 8.698681026308693 1.0797198389968046 8.61679412904775 1.0123251304164946 Z" fill="#a5b2ba" transform="matrix(1,0,0,1,0,0)" fill-rule="nonzero"></path></g><g clip-path="url(&quot;#SvgjsClipPath1008&quot;)"><path d=" M 9.063571097610318 0.10358098163336635 C 9.11848327295953 0.11429062752396224 9.17068184804397 0.13593095955495685 9.217064080951765 0.1672156520925421 C 9.240752872813639 0.18311427153642792 9.272843803904932 0.17680864477582842 9.288755721783602 0.15312878351105494 C 9.296439582956499 0.14174089495142636 9.2992728859604 0.12776217907094542 9.296629635439654 0.11428111994877085 C 9.29398638491892 0.10080006082659604 9.286084145575241 0.08892627807069381 9.274668853202112 0.08128318783134098 C 9.216845991920641 0.04230348018166526 9.151762487235837 0.015372976634158257 9.083302977280926 0.002099077735769894 C 9.0698565866183 -0.0005428851757719941 9.055911624004484 0.002277782984784253 9.044549048639931 0.009937892054700775 C 9.033186473275375 0.017598001124617554 9.02534151063132 0.029467066474769904 9.02274740377946 0.0429227715666359 C 9.021522858355166 0.04907293306153038 9.021435891115537 0.05539545138246188 9.022490812366321 0.06157696730204776 C 9.026118981954147 0.08275773669180281 9.042476229675204 0.09948279260646531 9.063571097610314 0.10358098163336635 Z" fill="#3682ae" transform="matrix(1,0,0,1,0,0)" fill-rule="nonzero"></path></g><g clip-path="url(&quot;#SvgjsClipPath1008&quot;)"><path d=" M 9.040734461840701 0.2920730337273597 C 9.157051966250016 0.3419883531529512 9.244598216450884 0.4417744819364098 9.278953929801583 0.5635980671140508 C 9.283977707975403 0.5793860817919383 9.296283807003611 0.5917971979569305 9.312028562955572 0.5969549508224895 C 9.322391843524471 0.6003318690690188 9.333559595040189 0.6003318690690188 9.343922875609096 0.5969549508224895 C 9.371054323334137 0.5881859901167998 9.385973842892469 0.5591158800850623 9.377279759317535 0.5319603458736627 C 9.326192408960992 0.3727197148778384 9.235359048708784 0.2662086192826622 9.08309770415042 0.1976987119737918 C 9.070603528362756 0.19207583452474822 9.056387213416231 0.19164742231743123 9.043577123637693 0.19650774939343374 C 9.030767033859163 0.201368076469436 9.020412854668479 0.2111188775116838 9.014793069972061 0.22361444470111758 C 9.009130386707975 0.23612954434566996 9.008683442438437 0.2503842059070083 9.01355097035655 0.2632294724604448 C 9.018418498274661 0.27607473901388135 9.028199924492919 0.286453507560542 9.040734461840701 0.2920730337273597 Z" fill="#3682ae" transform="matrix(1,0,0,1,0,0)" fill-rule="nonzero"></path></g><g clip-path="url(&quot;#SvgjsClipPath1008&quot;)"><path d=" M 9.417769884311314 1.112985941792037 C 9.41296903264616 1.1089479196275815 9.40746218318323 1.1058334613215333 9.401527647859433 1.1037999692015596 C 9.381237805968683 1.0968794009289586 9.3587818242562 1.1031976976016982 9.345077536968233 1.119682977675039 C 9.309288852691406 1.1626803002185393 9.265223407005838 1.1980460925677645 9.215498873331603 1.2236794774214255 C 9.190166023172676 1.236806321146563 9.180264943006513 1.2679797916465045 9.193380693518776 1.2933183869481197 C 9.19968452564473 1.305497461106015 9.210570805883266 1.3146714540778828 9.223642064170866 1.3188199903974371 C 9.236713322458456 1.322968526716991 9.250897530881591 1.321751367775448 9.263070921328092 1.315436566760946 C 9.325045803306548 1.2834734838917392 9.37995220060725 1.2393616214704013 9.424518238476933 1.1857296074177475 C 9.433284601486253 1.1751945108426645 9.437499679169775 1.1616047071942737 9.43623368150186 1.1479579262492206 C 9.434967683833941 1.1343111453041674 9.428324628225594 1.1217286393826755 9.417769884311314 1.112985941792037 Z" fill="#3682ae" transform="matrix(1,0,0,1,0,0)" fill-rule="nonzero"></path></g><g clip-path="url(&quot;#SvgjsClipPath1008&quot;)"><path d=" M 9.587017580419667 0.5015799225576693 C 9.559634775839676 0.3980604884217288 9.509904730878459 0.3017972048414634 9.441324976037732 0.21956030037347601 C 9.42298330948017 0.19775532542437868 9.390480150898815 0.19484425268824915 9.368555651270704 0.21304287847967399 C 9.346659337258606 0.23132673688411381 9.343708434452425 0.2638900067608952 9.361961251952959 0.2858122032466988 C 9.420830532765876 0.3563722160361409 9.463527461454106 0.43897216156612645 9.487049565859605 0.5278035649807642 C 9.501422043531594 0.5827061915149306 9.508284218360904 0.6393040284404273 9.507448583204384 0.6960505545778666 C 9.506445082261797 0.7779855167636123 9.489266798108208 0.8589152909917545 9.456900074815447 0.9341930451148062 C 9.445618316538706 0.9604168390146111 9.457725081270645 0.9908215887731084 9.48394480976059 1.0021127921734494 C 9.490142572301808 1.0048049206322216 9.496817191656843 1.006227094429438 9.503574052865943 1.0062952322076615 C 9.524519969807464 1.0066328881405235 9.543591334853353 0.994273508028384 9.551838897677927 0.9750167389456714 C 9.589572605045657 0.8872978716193792 9.609627616209115 0.7929957213007671 9.610854922700549 0.697513125632775 C 9.611839432537064 0.631422832199751 9.60381998456487 0.5655062501592287 9.587017580419667 0.5015799225576659 Z" fill="#a5b2ba" transform="matrix(1,0,0,1,0,0)" fill-rule="nonzero"></path></g><g clip-path="url(&quot;#SvgjsClipPath1008&quot;)"><path d=" M 8.99998774543377 1.3020168358536282 C 8.957979487755674 1.3100133517927572 8.915271851843377 1.3137528488986039 8.872513131384903 1.3131785623252976 C 8.526918026247353 1.3078602139254887 8.250844950965226 1.0237979963874753 8.255385123637476 0.6781917922231953 C 8.255784818722615 0.6496697420769665 8.232999114671449 0.6262179236936577 8.204477387270137 0.6257958256596325 C 8.17593686498931 0.6253960587935448 8.152466213003548 0.648189231098705 8.152030102423945 0.6767292211682868 C 8.146761999705635 1.0793722310089398 8.468420250048684 1.410293853275008 8.871050560329998 1.4164566061148873 C 8.92085131017154 1.4171904784887288 8.970596950023381 1.4128400993381878 9.019514351973866 1.40347308060991 C 9.032981066997566 1.400912015300128 9.044876336246432 1.3931002629786282 9.052577679733407 1.381760034694058 C 9.060279023220382 1.3704198064094877 9.06315407095094 1.356482266978779 9.060568978076553 1.3430201436736935 C 9.058010257610967 1.329529354457387 9.050177410038366 1.3176158630394896 9.038805913596747 1.3099192720552864 C 9.027434417155133 1.3022226810710829 9.013463186469744 1.2993784778442234 8.99998774543377 1.3020168358536282 Z" fill="#3682ae" transform="matrix(1,0,0,1,0,0)" fill-rule="nonzero"></path></g><g clip-path="url(&quot;#SvgjsClipPath1008&quot;)"><path d=" M 8.240246230262107 0.51648788366121 C 8.26881942370481 0.5164737174753142 8.291975062663202 0.49330659258490317 8.291975059151504 0.46473339563050164 C 8.291960901440369 0.43617021867959865 8.268809407212988 0.4130187244522336 8.2402462302621 0.4130045667411069 C 8.211673033307706 0.41300456322940937 8.188505908417298 0.43616020218779744 8.188491742231399 0.46473339563050164 C 8.188491742231392 0.47845953927944895 8.193944431565043 0.491623495820143 8.203650280818753 0.5013293450738543 C 8.213356130072459 0.5110351943275653 8.226520086613156 0.5164878836612102 8.240246230262104 0.51648788366121 Z" fill="#3682ae" transform="matrix(1,0,0,1,0,0)" fill-rule="nonzero"></path></g><g clip-path="url(&quot;#SvgjsClipPath1008&quot;)"><path d=" M 9.117788863207192 0.6775503136903407 C 9.146362056649895 0.6775361475044448 9.169517695608281 0.6543690226140335 9.169517692096587 0.625795825659632 C 9.169503534385449 0.597232648708729 9.146352040158071 0.574081154481364 9.117788863207178 0.5740669967702373 C 9.089215666252795 0.5740669932585397 9.066048541362386 0.5972226322169278 9.066034375176487 0.625795825659632 C 9.066034375176478 0.6395219693085796 9.07148706451013 0.6526859258492733 9.081192913763841 0.6623917751029846 C 9.090898763017547 0.6720976243566957 9.104062719558245 0.6775503136903409 9.117788863207192 0.6775503136903407 Z" fill="#a5b2ba" transform="matrix(1,0,0,1,0,0)" fill-rule="nonzero"></path></g><g clip-path="url(&quot;#SvgjsClipPath1008&quot;)"><path d=" M 8.300878781187526 0.32614837339259567 C 8.310415628655603 0.3334667454498133 8.322225809250599 0.33719149471438725 8.33423566489597 0.3366686213314107 C 8.34960502604559 0.336101691725379 8.363909875931327 0.32867145699210226 8.373211900552205 0.3164235588345197 C 8.486039385953704 0.16762526049972468 8.659497057258402 0.07707977252147616 8.846084215831302 0.06958261939207308 C 8.859780383264495 0.06902929172658219 8.872694254252655 0.06305188242632126 8.881979068576975 0.05296806386258589 C 8.891263882901294 0.04288424529885025 8.896157333983602 0.029521924304845196 8.895580699426363 0.01582671833885832 C 8.894413920445395 -0.012687253411401339 8.870365403777566 -0.03486379862896196 8.841850457514463 -0.03372108353883052 C 8.624490135063605 -0.025016369427385984 8.422423026610778 0.08047420142232917 8.29102567092288 0.25384091316922586 C 8.282736742546708 0.2647335181990173 8.279117766968586 0.2784743500584142 8.280965877457529 0.29203678588612875 C 8.282813987946474 0.30559922171384357 8.289977585542847 0.3178707462279581 8.300878781187526 0.3261483733925959 Z" fill="#a5b2ba" transform="matrix(1,0,0,1,0,0)" fill-rule="nonzero"></path></g><g clip-path="url(&quot;#SvgjsClipPath1008&quot;)"><path d=" M 9.132850779158616 0.736848589267419 C 9.127030595883843 0.7344909098123038 9.120809736741792 0.7332798461978155 9.114530152260294 0.7332819686247471 C 9.094620611484801 0.7332500521515577 9.07669211156397 0.745327664846101 9.069241767840754 0.7637906876473117 C 9.059991738145373 0.7888431779527953 9.044542896638788 0.8111424771788602 9.024338270540934 0.8286056786069396 C 9.01035952266608 0.84150524806638 8.99470282063856 0.8524580346556435 8.977792588197008 0.8611671289346385 C 8.953418213816576 0.8737741300175345 8.926798915487181 0.8814556242291932 8.899455229764802 0.8837728324324344 C 8.886484399815323 0.8847704890953443 8.87446148451158 0.8909484178821915 8.866098346056358 0.9009131388303091 C 8.85769560023766 0.9107659550480943 8.853592146468243 0.9235753850580298 8.854705687312862 0.9364767086917674 C 8.855178376191498 0.9428727076705946 8.856923074301973 0.9491100034155464 8.8598375155757 0.954822994731409 C 8.86819066043664 0.9710879660656015 8.88494258763406 0.9813114958513691 8.903227123537992 0.9813032285676466 C 8.904612717168954 0.9813032285676466 8.906023969941227 0.9813032285676466 8.907383904430885 0.9811236145784474 C 8.94748966738684 0.9777599923525342 8.986536781296133 0.9665114937051495 9.022285539235797 0.9480233222831507 C 9.047060963191585 0.9352881474050034 9.069988191469031 0.9192408140587045 9.09043621856627 0.9003229785800828 C 9.121181711893273 0.873095107948985 9.144895996081623 0.8388440761090167 9.159561945266681 0.8004832597265945 C 9.169679509448361 0.7755353699566665 9.157743753234453 0.7471005232607077 9.13285077915862 0.736848589267419 Z" fill="#3682ae" transform="matrix(1,0,0,1,0,0)" fill-rule="nonzero"></path></g><g clip-path="url(&quot;#SvgjsClipPath1008&quot;)"><path d=" M 8.763384803375683 0.8628862914026891 C 8.751591937848625 0.854695113963449 8.740656921771194 0.8453332959537582 8.730746375624044 0.8349434865115432 C 8.650957880031372 0.7510312811523382 8.65416060242443 0.618365106612818 8.737905276050702 0.5384007903435227 C 8.757410427078614 0.519784022746022 8.758156687869016 0.48888882602351236 8.739573120236123 0.4693520410670541 C 8.730329209692774 0.459683601882288 8.71753991128041 0.4542064458230778 8.704163505222546 0.45418748855037244 C 8.6916556787286 0.45417496314284717 8.67962149411936 0.4589702641856139 8.670550030100967 0.46758156031637577 C 8.547866240310944 0.584835251635021 8.543184050396839 0.7792494166714139 8.660081100444783 0.902273073319961 C 8.674548030007143 0.9174539401107868 8.690521828548972 0.9311236600685383 8.707755785006531 0.9430711080095133 C 8.715910981235277 0.9487673236146869 8.7256227434707 0.9518134483010746 8.735570294191112 0.9517952160563357 L 8.735570294191112 0.9517952160563357 C 8.7516191174715 0.9518272760809452 8.7666556934281 0.943958742395937 8.77577816863044 0.9307547201787053 C 8.783183403979585 0.9200889415794727 8.78602796577165 0.9069097543155904 8.783681184155206 0.8941391255233649 C 8.78134261649111 0.8814363212863962 8.774038393100842 0.870189110048284 8.763384803375683 0.8628862914026889 Z" fill="#a5b2ba" transform="matrix(1,0,0,1,0,0)" fill-rule="nonzero"></path></g><g clip-path="url(&quot;#SvgjsClipPath1008&quot;)"><path d=" M 9.009455968578708 0.5283424069483625 C 9.018470160514468 0.5368660849881375 9.030406857033407 0.5416132173729773 9.04281285228714 0.5416081830077953 C 9.056294372523993 0.5415821709196466 9.069172409953472 0.5360152959501324 9.07842774043123 0.5262126982192854 C 9.09688482929391 0.5065347895203475 9.09592040174799 0.47562718292979167 9.076272372560844 0.45713828980150284 C 9.023138007462828 0.40622792023730786 8.951525141568492 0.37921206620831915 8.878004187626132 0.38234189287065745 C 8.865060341796838 0.38234956876689413 8.852129275354242 0.38315508251480995 8.839284543383034 0.3847538521541904 C 8.81252238219471 0.38811619132151065 8.79353477740381 0.4125107863521411 8.796844323649376 0.4392795274468307 C 8.798268546842746 0.4505733773961973 8.803585788183273 0.4610173104728948 8.811880580459492 0.4688131990994556 C 8.820893638419518 0.47734175652033706 8.832828940694363 0.4820975154267748 8.845237464167917 0.4821046343002031 L 8.845237464167925 0.4821046343002031 C 8.847278769098304 0.4820930637327797 8.849317734853935 0.4819645574876765 8.851344339800708 0.4817197471804907 C 8.860127840505534 0.4806139706712832 8.86897174352845 0.4800569418956153 8.877824573636932 0.4800519029950684 C 8.926542776527594 0.47690445577698715 8.97433131544163 0.4944362355501273 9.009455968578703 0.528342406948363 Z" fill="#3682ae" transform="matrix(1,0,0,1,0,0)" fill-rule="nonzero"></path></g></g></g><defs><clipPath id="SvgjsClipPath1019"><path d=" M 8.151953125 -0.03374674268014388 h 1.4589017977005394 v 1.4503059853602878 h -1.4589017977005394 Z"></path></clipPath><clipPath id="SvgjsClipPath1008"><path d=" M 8.151953125 -0.03374674268014388 L 9.61085492270054 -0.03374674268014388 L 9.61085492270054 1.4165592426801439 L 8.151953125 1.4165592426801439 Z"></path></clipPath></defs></svg>